name processed_emg_signals
nRows=68
nColumns=7
 
endheader
time	LGLTMED	LRF	LADDLONG	LBF	LTA	LGM
9.619999999999955	0.4215725163644694	0.5339213861730494	0.6347983175045294	0.3745466148959515	0.9049805714885956	0.576571340240877
9.629999999999955	0.4209579991306123	0.5354652746571569	0.6377753595852949	0.3747472223414015	0.9043535172296232	0.5754522816711084
9.639999999999954	0.4203258465977397	0.5370258312737787	0.6408766267058537	0.3749815307916218	0.9037185516868178	0.574339110598065
9.649999999999954	0.4196762173162751	0.5386017285442105	0.644099621550057	0.3752494439097671	0.9030741528065456	0.5732336005092953
9.659999999999954	0.4190093323318698	0.5401916452428562	0.6474417615802458	0.3755508106135695	0.9024188612006204	0.5721374927810595
9.669999999999954	0.4183254742111815	0.5417942672481	0.6509003827977632	0.3758854239549022	0.9017512884160224	0.5710524927360443
9.679999999999954	0.4176249860216923	0.5434082884125041	0.6544727434162833	0.3762530202168101	0.901070124896917	0.5699802659210371
9.689999999999953	0.4169082702724338	0.5450324114560023	0.6581560274355385	0.3766532782340141	0.9003741475871	0.568922434612485
9.699999999999953	0.4161757878220134	0.5466653488850179	0.6619473481048923	0.3770858189421628	0.8996622271213419	0.5678805745568729
9.709999999999953	0.4154280567598058	0.5483058239394387	0.6658437512678643	0.3775502051603605	0.8989333345556998	0.5668562119516924
9.719999999999953	0.4146656512658729	0.5499525715680511	0.669842218580293	0.3780459416103463	0.8981865475899932	0.5658508206722408
9.729999999999952	0.4138892004548414	0.5516043394323084	0.6739396705968298	0.3785724751745828	0.8974210562397179	0.5648658197486497
9.739999999999952	0.4130993872089554	0.5532598889377351	0.6781329697230833	0.3791291953940056	0.8966361679181749	0.5639025710969242
9.749999999999952	0.4122969470053665	0.5549179962919201	0.6824189230332235	0.379715435205009	0.8958313118924283	0.5629623775069769
9.759999999999952	0.4114826667426611	0.5565774535876621	0.6867942849549324	0.3803304719137191	0.8950060430788336	0.5620464808896765
9.769999999999952	0.4106573835712451	0.5582370699092464	0.6912557598247275	0.3809735284044629	0.8941600451475862	0.5611560607839478
9.779999999999951	0.4098219837318401	0.55989567245948	0.6958000043170296	0.3816437745781384	0.8932931329129558	0.5602922331241851
9.789999999999951	0.4089774014059743	0.5615521077049354	0.7004236297504308	0.382340329014999	0.8924052539969304	0.5594560492676799
9.799999999999951	0.4081246175818774	0.5632052425367856	0.7051232042745705	0.3830622608555732	0.8914964897663081	0.5586484952816883
9.80999999999995	0.4072646589381828	0.56485396544464	0.7098952549414524	0.3838085918925646	0.890567055553776	0.5578704914890503
9.81999999999995	0.4063985967467016	0.5664971877014642	0.7147362696653874	0.3845782988661401	0.8896173001801626	0.5571228922707725
9.82999999999995	0.4055275457942223	0.5681338445590183	0.7196426990758117	0.3853703159542573	0.8886477047987169	0.5564064861225864
9.83999999999995	0.4046526633221722	0.5697628964545317	0.7246109582673319	0.3861835374490214	0.8876588810837448	0.555721995961098
9.84999999999995	0.4037751479823658	0.571383330230049	0.7296374284507926	0.3870168206092695	0.8866515687871662	0.5550700796737115
9.85999999999995	0.4028962388064229	0.5729941603652705	0.7347184585088264	0.387868988678497	0.885626632687905	0.5544513309048965
9.86999999999995	0.402017214186082	0.5745944302240463	0.7398503664584403	0.3887388340564707	0.8845850589614005	0.5538662800699216
9.87999999999995	0.4011393908608628	0.5761832133136157	0.7450294408215594	0.3896251216118403	0.8835279509988998	0.553315395585606
9.889999999999949	0.4002641229090215	0.5777596145553964	0.7502519419024224	0.3905265921224203	0.8824565247084666	0.5527990853059165
9.899999999999949	0.3993928007369903	0.5793227715653422	0.7555141029691399	0.3914419658289599	0.8813721033301463	0.5523176981485661
9.909999999999949	0.3985268500617269	0.5808718559415007	0.7608121313366395	0.3923699460875432	0.8802761117969868	0.5518715258971432
9.919999999999948	0.3976677308799067	0.5824060745551342	0.7661422093502384	0.3933092231049834	0.8791700706716247	0.551460805162034
9.929999999999948	0.3968169364171131	0.5839246708408005	0.7715004952733027	0.3942584777407562	0.8780555896862263	0.5510857194826293
9.939999999999948	0.3959759920493431	0.5854269260795815	0.7768831240880474	0.3952163853585307	0.8769343609126101	0.5507464015528568
9.949999999999948	0.3951464541884233	0.586912160669081	0.7822862082245682	0.396181619709997	0.8758081515896312	0.5504429355514944
9.959999999999948	0.3943299091218762	0.5883797353730997	0.7877058382386605	0.3971528568336676	0.8746787966368044	0.550175359557819
9.969999999999947	0.3935279717968841	0.5898290525430602	0.7931380834630893	0.3981287789509316	0.8735481908862995	0.5499436680322195
9.979999999999947	0.3927422845370411	0.5912595573022982	0.7985789926601613	0.3991080783412626	0.8724182810690467	0.5497478143411458
9.989999999999947	0.3919745156795084	0.5926707386830996	0.8040245947055784	0.4000894611781947	0.8712910575933656	0.5495877133067281
9.999999999999947	0.3912263581192001	0.5940621307052593	0.8094708993344277	0.4010716513076299	0.8701685461551129	0.5494632437641672
10.009999999999946	0.3904995277457069	0.5954333133840045	0.814913897980042	0.4020533939505293	0.8690527992174022	0.5493742511131768
10.019999999999946	0.3897957617577641	0.5967839136541963	0.8203495647352729	0.4030334593127704	0.867945887395979	0.5493205498526336
10.029999999999946	0.3891168168391855	0.5981136061966724	0.8257738574647046	0.4040106460856065	0.8668498907845307	0.5493019260884249
10.039999999999946	0.3884644671796371	0.5994221141513821	0.8311827190943926	0.4049837848208689	0.8657668902523742	0.549318140004712
10.049999999999946	0.3878405023243276	0.6007092097006698	0.8365720791038761	0.4059517411649823	0.8646989587451372	0.5493689282885739
10.059999999999945	0.3872467248392933	0.6019747145051488	0.8419378552428265	0.4069134189355748	0.8636481526173792	0.5494540064982184
10.069999999999945	0.3866849477846631	0.6032184999742342	0.8472759554924606	0.4078677630239865	0.8626165030249838	0.5495730713658412
10.079999999999945	0.3861569919950972	0.6044404873543842	0.8525822802899439	0.4088137621064732	0.861606007404945	0.5497258030273097
10.089999999999945	0.385664683172615	0.6056406476203524	0.8578527250318302	0.4097504511465554	0.8606186210708437	0.5499118671717901
10.099999999999945	0.385209848801154	0.6068190011583808	0.8630831828706557	0.4106769136707955	0.8596562489537849	0.5501309171050618
10.109999999999944	0.3847943148942361	0.6079756172338352	0.8682695478162303	0.4115922838007941	0.8587207375198462	0.5503825957200597
10.119999999999944	0.3844199025886117	0.6091106132394866	0.8734077181509157	0.4124957480256509	0.857813866895853	0.5506665373676639
10.129999999999944	0.3840884245978537	0.6102241537237979	0.8784936001657399	0.4133865467023384	0.8569373432353549	0.5509823696202959
10.139999999999944	0.3838016815406248	0.6113164492023634	0.8835231122223707	0.4142639752759011	0.8560927913563797	0.5513297149203629
10.149999999999944	0.383561458158609	0.6123877547597244	0.888492189144242	0.4151273852167086	0.8552817476817216	0.551708192105413
10.159999999999943	0.3833695194388995	0.6134383684527407	0.8933967869386817	0.415976184677285	0.854505653511519	0.552117417802027
10.169999999999943	0.3832276066551839	0.6144686295296716	0.898232887849728	0.4168098388757472	0.8537658486562306	0.552557007680599
10.179999999999943	0.3831374333419051	0.6154789164810457	0.902996505738666	0.4176278702159701	0.853063565456402	0.5530265775635479
10.189999999999943	0.383100681215165	0.6164696449390853	0.9076836917864468	0.4184298581559537	0.85239992321376	0.5535257443796936
10.199999999999942	0.3831189960538826	0.6174412654424597	0.9122905405089996	0.4192154388361224	0.8517759230561885	0.5540541269579501
10.209999999999942	0.3831939835543082	0.6183942610826334	0.916813196073835	0.4199843044785946	0.8511924432575353	0.554611346654712
10.219999999999942	0.3833272051709033	0.6193291450476281	0.9212478589034624	0.4207362025680385	0.8506502350311084	0.5551970278105539
10.229999999999942	0.3835201739559036	0.6202464580784787	0.925590792548608	0.4214709348245684	0.8501499188144448	0.555810798033628
10.239999999999942	0.3837743504095233	0.6211467658533648	0.9298383308116336	0.4221883559789254	0.8496919810614	0.5564522883086663
10.249999999999941	0.3840911383518499	0.6220306563135557	0.9339868850979106	0.4228883723603907	0.8492767715563005	0.5571211329328726
10.259999999999941	0.3844718808275478	0.6228987369448359	0.9380329519708034	0.4235709403074887	0.848904501263353	0.5578169692822205
10.269999999999941	0.3849178560548016	0.6237516320272845	0.9419731208832866	0.4242360644110615	0.848575240722255	0.5585394374142575
10.27999999999994	0.3854302734311406	0.6245899798660113	0.9458040820568628	0.4248837955991592	0.8482889189985707	0.5592881795160043
10.28999999999994	0.3860102696097492	0.6254144300150737	0.9495226344756694	0.4255142290732109	0.8480453231946227	0.5600628392075979
